<?xml version="1.0" encoding="UTF-8"?>
<!DOCTYPE svg PUBLIC "-//W3C//DTD SVG 1.1//EN"
    "http://www.w3.org/Graphics/SVG/1.1/DTD/svg11.dtd">
<svg xmlns="http://www.w3.org/2000/svg" xmlns:xlink="http://www.w3.org/1999/xlink" version="1.1" width="1000.0000000000001" height="332.258064516129" font-size="1" viewBox="0 0 1000 332"><g><g transform="matrix(0.2932551319648094,0.0,0.0,0.2932551319648094,500.00000000000006,166.1290322580645)"><g stroke="rgb(0,0,0)" stroke-opacity="1.0" fill-opacity="0.0" stroke-width="3.0" stroke-linecap="butt" stroke-linejoin="miter" font-size="1.0em" stroke-miterlimit="10.0"><path d="M 0.0,450.0 l 800.0,-300.0 " /></g></g><g transform="matrix(0.2932551319648094,0.0,0.0,0.2932551319648094,500.00000000000006,166.1290322580645)"><g stroke="rgb(0,0,0)" stroke-opacity="1.0" fill-opacity="0.0" stroke-width="3.0" stroke-linecap="butt" stroke-linejoin="miter" font-size="1.0em" stroke-miterlimit="10.0"><path d="M 0.0,450.0 l -800.0,-300.0 " /></g></g><g transform="matrix(0.2932551319648094,0.0,0.0,0.2932551319648094,500.00000000000006,166.1290322580645)"><g stroke="rgb(0,0,0)" stroke-opacity="1.0" fill-opacity="0.0" stroke-width="3.0" stroke-linecap="butt" stroke-linejoin="miter" font-size="1.0em" stroke-miterlimit="10.0"><path d="M 800.0,150.0 l 400.0,-300.0 " /></g></g><g transform="matrix(0.2932551319648094,0.0,0.0,0.2932551319648094,500.00000000000006,166.1290322580645)"><g stroke="rgb(0,0,0)" stroke-opacity="1.0" fill-opacity="0.0" stroke-width="3.0" stroke-linecap="butt" stroke-linejoin="miter" font-size="1.0em" stroke-miterlimit="10.0"><path d="M 800.0,150.0 l -400.0,-300.0 " /></g></g><g transform="matrix(0.2932551319648094,0.0,0.0,0.2932551319648094,500.00000000000006,166.1290322580645)"><g stroke="rgb(0,0,0)" stroke-opacity="1.0" fill-opacity="0.0" stroke-width="3.0" stroke-linecap="butt" stroke-linejoin="miter" font-size="1.0em" stroke-miterlimit="10.0"><path d="M 1200.0,-150.0 l 200.0,-300.0 " /></g></g><g transform="matrix(0.2932551319648094,0.0,0.0,0.2932551319648094,500.00000000000006,166.1290322580645)"><g stroke="rgb(0,0,0)" stroke-opacity="1.0" fill-opacity="0.0" stroke-width="3.0" stroke-linecap="butt" stroke-linejoin="miter" font-size="1.0em" stroke-miterlimit="10.0"><path d="M 1200.0,-150.0 l -200.0,-300.0 " /></g></g><g transform="matrix(0.2932551319648094,0.0,0.0,0.2932551319648094,500.00000000000006,166.1290322580645)"><g stroke="rgb(0,0,0)" stroke-opacity="1.0" fill="rgb(255,255,255)" fill-opacity="1.0" stroke-width="0.0" stroke-linecap="butt" stroke-linejoin="miter" font-size="1.0em" stroke-miterlimit="10.0"><path d="M 1550.0,-385.0 l -3.330669073875471e-14,-130.0 h -300.0000000000001 l -3.330669073875471e-14,130.0 h 300.0000000000002 Z" /></g></g><g transform="matrix(0.2932551319648094,0.0,0.0,0.2932551319648094,500.00000000000006,166.1290322580645)"><g stroke="rgb(0,0,0)" stroke-opacity="1.0" fill="rgb(0,0,0)" fill-opacity="0.0" stroke-width="3.0" stroke-linecap="butt" stroke-linejoin="miter" font-size="1.0em" stroke-miterlimit="10.0"><path d="M 1550.0,-385.0 l -3.3306690738754696e-14,-130.0 h -300.0 l -3.3306690738754696e-14,130.0 h 300.0000000000001 Z" /></g></g><g transform="matrix(0.2932551319648094,0.0,0.0,0.2932551319648094,500.00000000000006,166.1290322580645)"><g stroke="rgb(0,0,0)" stroke-opacity="1.0" fill="rgb(0,0,0)" fill-opacity="1.0" stroke-width="3.0" stroke-linecap="butt" stroke-linejoin="miter" font-size="1.0em" stroke-miterlimit="10.0"><text transform="matrix(100.0,0.0,0.0,100.0,1400.0,-450.0)" dominant-baseline="middle" text-anchor="middle" stroke="none">7</text></g></g><g transform="matrix(0.2932551319648094,0.0,0.0,0.2932551319648094,500.00000000000006,166.1290322580645)"><g stroke="rgb(0,0,0)" stroke-opacity="1.0" fill="rgb(255,255,255)" fill-opacity="1.0" stroke-width="0.0" stroke-linecap="butt" stroke-linejoin="miter" font-size="1.0em" stroke-miterlimit="10.0"><path d="M 1150.0,-385.0 l -3.330669073875471e-14,-130.0 h -300.0000000000001 l -3.330669073875471e-14,130.0 h 300.0000000000002 Z" /></g></g><g transform="matrix(0.2932551319648094,0.0,0.0,0.2932551319648094,500.00000000000006,166.1290322580645)"><g stroke="rgb(0,0,0)" stroke-opacity="1.0" fill="rgb(0,0,0)" fill-opacity="0.0" stroke-width="3.0" stroke-linecap="butt" stroke-linejoin="miter" font-size="1.0em" stroke-miterlimit="10.0"><path d="M 1150.0,-385.0 l -3.3306690738754696e-14,-130.0 h -300.0 l -3.3306690738754696e-14,130.0 h 300.0000000000001 Z" /></g></g><g transform="matrix(0.2932551319648094,0.0,0.0,0.2932551319648094,500.00000000000006,166.1290322580645)"><g stroke="rgb(0,0,0)" stroke-opacity="1.0" fill="rgb(0,0,0)" fill-opacity="1.0" stroke-width="3.0" stroke-linecap="butt" stroke-linejoin="miter" font-size="1.0em" stroke-miterlimit="10.0"><text transform="matrix(100.0,0.0,0.0,100.0,1000.0,-450.0)" dominant-baseline="middle" text-anchor="middle" stroke="none">8</text></g></g><g transform="matrix(0.2932551319648094,0.0,0.0,0.2932551319648094,500.00000000000006,166.1290322580645)"><g stroke="rgb(0,0,0)" stroke-opacity="1.0" fill="rgb(255,255,255)" fill-opacity="1.0" stroke-width="0.0" stroke-linecap="butt" stroke-linejoin="miter" font-size="1.0em" stroke-miterlimit="10.0"><path d="M 1350.0,-85.0 l -3.330669073875471e-14,-130.0 h -300.0000000000001 l -3.330669073875471e-14,130.0 h 300.0000000000002 Z" /></g></g><g transform="matrix(0.2932551319648094,0.0,0.0,0.2932551319648094,500.00000000000006,166.1290322580645)"><g stroke="rgb(0,0,0)" stroke-opacity="1.0" fill="rgb(0,0,0)" fill-opacity="0.0" stroke-width="3.0" stroke-linecap="butt" stroke-linejoin="miter" font-size="1.0em" stroke-miterlimit="10.0"><path d="M 1350.0,-85.0 l -3.3306690738754696e-14,-130.0 h -300.0 l -3.3306690738754696e-14,130.0 h 300.0000000000001 Z" /></g></g><g transform="matrix(0.2932551319648094,0.0,0.0,0.2932551319648094,500.00000000000006,166.1290322580645)"><g stroke="rgb(0,0,0)" stroke-opacity="1.0" fill="rgb(0,0,0)" fill-opacity="1.0" stroke-width="3.0" stroke-linecap="butt" stroke-linejoin="miter" font-size="1.0em" stroke-miterlimit="10.0"><text transform="matrix(100.0,0.0,0.0,100.0,1200.0,-150.0)" dominant-baseline="middle" text-anchor="middle" stroke="none">15</text></g></g><g transform="matrix(0.2932551319648094,0.0,0.0,0.2932551319648094,500.00000000000006,166.1290322580645)"><g stroke="rgb(0,0,0)" stroke-opacity="1.0" fill-opacity="0.0" stroke-width="3.0" stroke-linecap="butt" stroke-linejoin="miter" font-size="1.0em" stroke-miterlimit="10.0"><path d="M 400.0,-150.0 l 200.0,-300.0 " /></g></g><g transform="matrix(0.2932551319648094,0.0,0.0,0.2932551319648094,500.00000000000006,166.1290322580645)"><g stroke="rgb(0,0,0)" stroke-opacity="1.0" fill-opacity="0.0" stroke-width="3.0" stroke-linecap="butt" stroke-linejoin="miter" font-size="1.0em" stroke-miterlimit="10.0"><path d="M 400.0,-150.0 l -200.0,-300.0 " /></g></g><g transform="matrix(0.2932551319648094,0.0,0.0,0.2932551319648094,500.00000000000006,166.1290322580645)"><g stroke="rgb(0,0,0)" stroke-opacity="1.0" fill="rgb(255,255,255)" fill-opacity="1.0" stroke-width="0.0" stroke-linecap="butt" stroke-linejoin="miter" font-size="1.0em" stroke-miterlimit="10.0"><path d="M 750.0000000000001,-385.0 l -3.330669073875471e-14,-130.0 h -300.0000000000001 l -3.330669073875471e-14,130.0 h 300.0000000000002 Z" /></g></g><g transform="matrix(0.2932551319648094,0.0,0.0,0.2932551319648094,500.00000000000006,166.1290322580645)"><g stroke="rgb(0,0,0)" stroke-opacity="1.0" fill="rgb(0,0,0)" fill-opacity="0.0" stroke-width="3.0" stroke-linecap="butt" stroke-linejoin="miter" font-size="1.0em" stroke-miterlimit="10.0"><path d="M 750.0,-385.0 l -3.3306690738754696e-14,-130.0 h -300.0 l -3.3306690738754696e-14,130.0 h 300.0000000000001 Z" /></g></g><g transform="matrix(0.2932551319648094,0.0,0.0,0.2932551319648094,500.00000000000006,166.1290322580645)"><g stroke="rgb(0,0,0)" stroke-opacity="1.0" fill="rgb(0,0,0)" fill-opacity="1.0" stroke-width="3.0" stroke-linecap="butt" stroke-linejoin="miter" font-size="1.0em" stroke-miterlimit="10.0"><text transform="matrix(100.0,0.0,0.0,100.0,600.0,-450.0)" dominant-baseline="middle" text-anchor="middle" stroke="none">5</text></g></g><g transform="matrix(0.2932551319648094,0.0,0.0,0.2932551319648094,500.00000000000006,166.1290322580645)"><g stroke="rgb(0,0,0)" stroke-opacity="1.0" fill="rgb(255,255,255)" fill-opacity="1.0" stroke-width="0.0" stroke-linecap="butt" stroke-linejoin="miter" font-size="1.0em" stroke-miterlimit="10.0"><path d="M 350.0,-385.0 l -3.330669073875471e-14,-130.0 h -300.0000000000001 l -3.330669073875471e-14,130.0 h 300.0000000000002 Z" /></g></g><g transform="matrix(0.2932551319648094,0.0,0.0,0.2932551319648094,500.00000000000006,166.1290322580645)"><g stroke="rgb(0,0,0)" stroke-opacity="1.0" fill="rgb(0,0,0)" fill-opacity="0.0" stroke-width="3.0" stroke-linecap="butt" stroke-linejoin="miter" font-size="1.0em" stroke-miterlimit="10.0"><path d="M 350.00000000000006,-385.0 l -3.3306690738754696e-14,-130.0 h -300.0 l -3.3306690738754696e-14,130.0 h 300.0000000000001 Z" /></g></g><g transform="matrix(0.2932551319648094,0.0,0.0,0.2932551319648094,500.00000000000006,166.1290322580645)"><g stroke="rgb(0,0,0)" stroke-opacity="1.0" fill="rgb(0,0,0)" fill-opacity="1.0" stroke-width="3.0" stroke-linecap="butt" stroke-linejoin="miter" font-size="1.0em" stroke-miterlimit="10.0"><text transform="matrix(100.0,0.0,0.0,100.0,200.0,-450.0)" dominant-baseline="middle" text-anchor="middle" stroke="none">6</text></g></g><g transform="matrix(0.2932551319648094,0.0,0.0,0.2932551319648094,500.00000000000006,166.1290322580645)"><g stroke="rgb(0,0,0)" stroke-opacity="1.0" fill="rgb(255,255,255)" fill-opacity="1.0" stroke-width="0.0" stroke-linecap="butt" stroke-linejoin="miter" font-size="1.0em" stroke-miterlimit="10.0"><path d="M 550.0,-85.0 l -3.330669073875471e-14,-130.0 h -300.0000000000001 l -3.330669073875471e-14,130.0 h 300.0000000000002 Z" /></g></g><g transform="matrix(0.2932551319648094,0.0,0.0,0.2932551319648094,500.00000000000006,166.1290322580645)"><g stroke="rgb(0,0,0)" stroke-opacity="1.0" fill="rgb(0,0,0)" fill-opacity="0.0" stroke-width="3.0" stroke-linecap="butt" stroke-linejoin="miter" font-size="1.0em" stroke-miterlimit="10.0"><path d="M 550.0,-85.0 l -3.3306690738754696e-14,-130.0 h -300.0 l -3.3306690738754696e-14,130.0 h 300.0000000000001 Z" /></g></g><g transform="matrix(0.2932551319648094,0.0,0.0,0.2932551319648094,500.00000000000006,166.1290322580645)"><g stroke="rgb(0,0,0)" stroke-opacity="1.0" fill="rgb(0,0,0)" fill-opacity="1.0" stroke-width="3.0" stroke-linecap="butt" stroke-linejoin="miter" font-size="1.0em" stroke-miterlimit="10.0"><text transform="matrix(100.0,0.0,0.0,100.0,400.0,-150.0)" dominant-baseline="middle" text-anchor="middle" stroke="none">11</text></g></g><g transform="matrix(0.2932551319648094,0.0,0.0,0.2932551319648094,500.00000000000006,166.1290322580645)"><g stroke="rgb(0,0,0)" stroke-opacity="1.0" fill="rgb(255,255,255)" fill-opacity="1.0" stroke-width="0.0" stroke-linecap="butt" stroke-linejoin="miter" font-size="1.0em" stroke-miterlimit="10.0"><path d="M 950.0000000000001,215.0 l -3.330669073875471e-14,-130.0 h -300.0000000000001 l -3.330669073875471e-14,130.0 h 300.0000000000002 Z" /></g></g><g transform="matrix(0.2932551319648094,0.0,0.0,0.2932551319648094,500.00000000000006,166.1290322580645)"><g stroke="rgb(0,0,0)" stroke-opacity="1.0" fill="rgb(0,0,0)" fill-opacity="0.0" stroke-width="3.0" stroke-linecap="butt" stroke-linejoin="miter" font-size="1.0em" stroke-miterlimit="10.0"><path d="M 950.0,215.0 l -3.3306690738754696e-14,-130.0 h -300.0 l -3.3306690738754696e-14,130.0 h 300.0000000000001 Z" /></g></g><g transform="matrix(0.2932551319648094,0.0,0.0,0.2932551319648094,500.00000000000006,166.1290322580645)"><g stroke="rgb(0,0,0)" stroke-opacity="1.0" fill="rgb(0,0,0)" fill-opacity="1.0" stroke-width="3.0" stroke-linecap="butt" stroke-linejoin="miter" font-size="1.0em" stroke-miterlimit="10.0"><text transform="matrix(100.0,0.0,0.0,100.0,800.0,150.0)" dominant-baseline="middle" text-anchor="middle" stroke="none">26</text></g></g><g transform="matrix(0.2932551319648094,0.0,0.0,0.2932551319648094,500.00000000000006,166.1290322580645)"><g stroke="rgb(0,0,0)" stroke-opacity="1.0" fill-opacity="0.0" stroke-width="3.0" stroke-linecap="butt" stroke-linejoin="miter" font-size="1.0em" stroke-miterlimit="10.0"><path d="M -800.0,150.0 l 400.0,-300.0 " /></g></g><g transform="matrix(0.2932551319648094,0.0,0.0,0.2932551319648094,500.00000000000006,166.1290322580645)"><g stroke="rgb(0,0,0)" stroke-opacity="1.0" fill-opacity="0.0" stroke-width="3.0" stroke-linecap="butt" stroke-linejoin="miter" font-size="1.0em" stroke-miterlimit="10.0"><path d="M -800.0,150.0 l -400.0,-300.0 " /></g></g><g transform="matrix(0.2932551319648094,0.0,0.0,0.2932551319648094,500.00000000000006,166.1290322580645)"><g stroke="rgb(0,0,0)" stroke-opacity="1.0" fill-opacity="0.0" stroke-width="3.0" stroke-linecap="butt" stroke-linejoin="miter" font-size="1.0em" stroke-miterlimit="10.0"><path d="M -400.0,-150.0 l 200.0,-300.0 " /></g></g><g transform="matrix(0.2932551319648094,0.0,0.0,0.2932551319648094,500.00000000000006,166.1290322580645)"><g stroke="rgb(0,0,0)" stroke-opacity="1.0" fill-opacity="0.0" stroke-width="3.0" stroke-linecap="butt" stroke-linejoin="miter" font-size="1.0em" stroke-miterlimit="10.0"><path d="M -400.0,-150.0 l -200.0,-300.0 " /></g></g><g transform="matrix(0.2932551319648094,0.0,0.0,0.2932551319648094,500.00000000000006,166.1290322580645)"><g stroke="rgb(0,0,0)" stroke-opacity="1.0" fill="rgb(255,255,255)" fill-opacity="1.0" stroke-width="0.0" stroke-linecap="butt" stroke-linejoin="miter" font-size="1.0em" stroke-miterlimit="10.0"><path d="M -49.99999999999997,-385.0 l -3.330669073875471e-14,-130.0 h -300.0000000000001 l -3.330669073875471e-14,130.0 h 300.0000000000002 Z" /></g></g><g transform="matrix(0.2932551319648094,0.0,0.0,0.2932551319648094,500.00000000000006,166.1290322580645)"><g stroke="rgb(0,0,0)" stroke-opacity="1.0" fill="rgb(0,0,0)" fill-opacity="0.0" stroke-width="3.0" stroke-linecap="butt" stroke-linejoin="miter" font-size="1.0em" stroke-miterlimit="10.0"><path d="M -49.99999999999994,-385.0 l -3.3306690738754696e-14,-130.0 h -300.0 l -3.3306690738754696e-14,130.0 h 300.0000000000001 Z" /></g></g><g transform="matrix(0.2932551319648094,0.0,0.0,0.2932551319648094,500.00000000000006,166.1290322580645)"><g stroke="rgb(0,0,0)" stroke-opacity="1.0" fill="rgb(0,0,0)" fill-opacity="1.0" stroke-width="3.0" stroke-linecap="butt" stroke-linejoin="miter" font-size="1.0em" stroke-miterlimit="10.0"><text transform="matrix(100.0,0.0,0.0,100.0,-200.0,-450.0)" dominant-baseline="middle" text-anchor="middle" stroke="none">3</text></g></g><g transform="matrix(0.2932551319648094,0.0,0.0,0.2932551319648094,500.00000000000006,166.1290322580645)"><g stroke="rgb(0,0,0)" stroke-opacity="1.0" fill="rgb(255,255,255)" fill-opacity="1.0" stroke-width="0.0" stroke-linecap="butt" stroke-linejoin="miter" font-size="1.0em" stroke-miterlimit="10.0"><path d="M -449.9999999999999,-385.0 l -3.330669073875471e-14,-130.0 h -300.0000000000001 l -3.330669073875471e-14,130.0 h 300.0000000000002 Z" /></g></g><g transform="matrix(0.2932551319648094,0.0,0.0,0.2932551319648094,500.00000000000006,166.1290322580645)"><g stroke="rgb(0,0,0)" stroke-opacity="1.0" fill="rgb(0,0,0)" fill-opacity="0.0" stroke-width="3.0" stroke-linecap="butt" stroke-linejoin="miter" font-size="1.0em" stroke-miterlimit="10.0"><path d="M -449.99999999999994,-385.0 l -3.3306690738754696e-14,-130.0 h -300.0 l -3.3306690738754696e-14,130.0 h 300.0000000000001 Z" /></g></g><g transform="matrix(0.2932551319648094,0.0,0.0,0.2932551319648094,500.00000000000006,166.1290322580645)"><g stroke="rgb(0,0,0)" stroke-opacity="1.0" fill="rgb(0,0,0)" fill-opacity="1.0" stroke-width="3.0" stroke-linecap="butt" stroke-linejoin="miter" font-size="1.0em" stroke-miterlimit="10.0"><text transform="matrix(100.0,0.0,0.0,100.0,-600.0,-450.0)" dominant-baseline="middle" text-anchor="middle" stroke="none">4</text></g></g><g transform="matrix(0.2932551319648094,0.0,0.0,0.2932551319648094,500.00000000000006,166.1290322580645)"><g stroke="rgb(0,0,0)" stroke-opacity="1.0" fill="rgb(255,255,255)" fill-opacity="1.0" stroke-width="0.0" stroke-linecap="butt" stroke-linejoin="miter" font-size="1.0em" stroke-miterlimit="10.0"><path d="M -249.99999999999997,-85.0 l -3.330669073875471e-14,-130.0 h -300.0000000000001 l -3.330669073875471e-14,130.0 h 300.0000000000002 Z" /></g></g><g transform="matrix(0.2932551319648094,0.0,0.0,0.2932551319648094,500.00000000000006,166.1290322580645)"><g stroke="rgb(0,0,0)" stroke-opacity="1.0" fill="rgb(0,0,0)" fill-opacity="0.0" stroke-width="3.0" stroke-linecap="butt" stroke-linejoin="miter" font-size="1.0em" stroke-miterlimit="10.0"><path d="M -249.99999999999994,-85.0 l -3.3306690738754696e-14,-130.0 h -300.0 l -3.3306690738754696e-14,130.0 h 300.0000000000001 Z" /></g></g><g transform="matrix(0.2932551319648094,0.0,0.0,0.2932551319648094,500.00000000000006,166.1290322580645)"><g stroke="rgb(0,0,0)" stroke-opacity="1.0" fill="rgb(0,0,0)" fill-opacity="1.0" stroke-width="3.0" stroke-linecap="butt" stroke-linejoin="miter" font-size="1.0em" stroke-miterlimit="10.0"><text transform="matrix(100.0,0.0,0.0,100.0,-400.0,-150.0)" dominant-baseline="middle" text-anchor="middle" stroke="none">7</text></g></g><g transform="matrix(0.2932551319648094,0.0,0.0,0.2932551319648094,500.00000000000006,166.1290322580645)"><g stroke="rgb(0,0,0)" stroke-opacity="1.0" fill-opacity="0.0" stroke-width="3.0" stroke-linecap="butt" stroke-linejoin="miter" font-size="1.0em" stroke-miterlimit="10.0"><path d="M -1200.0,-150.0 l 200.0,-300.0 " /></g></g><g transform="matrix(0.2932551319648094,0.0,0.0,0.2932551319648094,500.00000000000006,166.1290322580645)"><g stroke="rgb(0,0,0)" stroke-opacity="1.0" fill-opacity="0.0" stroke-width="3.0" stroke-linecap="butt" stroke-linejoin="miter" font-size="1.0em" stroke-miterlimit="10.0"><path d="M -1200.0,-150.0 l -200.0,-300.0 " /></g></g><g transform="matrix(0.2932551319648094,0.0,0.0,0.2932551319648094,500.00000000000006,166.1290322580645)"><g stroke="rgb(0,0,0)" stroke-opacity="1.0" fill="rgb(255,255,255)" fill-opacity="1.0" stroke-width="0.0" stroke-linecap="butt" stroke-linejoin="miter" font-size="1.0em" stroke-miterlimit="10.0"><path d="M -849.9999999999999,-385.0 l -3.330669073875471e-14,-130.0 h -300.0000000000001 l -3.330669073875471e-14,130.0 h 300.0000000000002 Z" /></g></g><g transform="matrix(0.2932551319648094,0.0,0.0,0.2932551319648094,500.00000000000006,166.1290322580645)"><g stroke="rgb(0,0,0)" stroke-opacity="1.0" fill="rgb(0,0,0)" fill-opacity="0.0" stroke-width="3.0" stroke-linecap="butt" stroke-linejoin="miter" font-size="1.0em" stroke-miterlimit="10.0"><path d="M -850.0,-385.0 l -3.3306690738754696e-14,-130.0 h -300.0 l -3.3306690738754696e-14,130.0 h 300.0000000000001 Z" /></g></g><g transform="matrix(0.2932551319648094,0.0,0.0,0.2932551319648094,500.00000000000006,166.1290322580645)"><g stroke="rgb(0,0,0)" stroke-opacity="1.0" fill="rgb(0,0,0)" fill-opacity="1.0" stroke-width="3.0" stroke-linecap="butt" stroke-linejoin="miter" font-size="1.0em" stroke-miterlimit="10.0"><text transform="matrix(100.0,0.0,0.0,100.0,-1000.0,-450.0)" dominant-baseline="middle" text-anchor="middle" stroke="none">5</text></g></g><g transform="matrix(0.2932551319648094,0.0,0.0,0.2932551319648094,500.00000000000006,166.1290322580645)"><g stroke="rgb(0,0,0)" stroke-opacity="1.0" fill="rgb(255,255,255)" fill-opacity="1.0" stroke-width="0.0" stroke-linecap="butt" stroke-linejoin="miter" font-size="1.0em" stroke-miterlimit="10.0"><path d="M -1250.0,-385.0 l -3.330669073875471e-14,-130.0 h -300.0000000000001 l -3.330669073875471e-14,130.0 h 300.0000000000002 Z" /></g></g><g transform="matrix(0.2932551319648094,0.0,0.0,0.2932551319648094,500.00000000000006,166.1290322580645)"><g stroke="rgb(0,0,0)" stroke-opacity="1.0" fill="rgb(0,0,0)" fill-opacity="0.0" stroke-width="3.0" stroke-linecap="butt" stroke-linejoin="miter" font-size="1.0em" stroke-miterlimit="10.0"><path d="M -1250.0,-385.0 l -3.3306690738754696e-14,-130.0 h -300.0 l -3.3306690738754696e-14,130.0 h 300.0000000000001 Z" /></g></g><g transform="matrix(0.2932551319648094,0.0,0.0,0.2932551319648094,500.00000000000006,166.1290322580645)"><g stroke="rgb(0,0,0)" stroke-opacity="1.0" fill="rgb(0,0,0)" fill-opacity="1.0" stroke-width="3.0" stroke-linecap="butt" stroke-linejoin="miter" font-size="1.0em" stroke-miterlimit="10.0"><text transform="matrix(100.0,0.0,0.0,100.0,-1400.0,-450.0)" dominant-baseline="middle" text-anchor="middle" stroke="none">2</text></g></g><g transform="matrix(0.2932551319648094,0.0,0.0,0.2932551319648094,500.00000000000006,166.1290322580645)"><g stroke="rgb(0,0,0)" stroke-opacity="1.0" fill="rgb(255,255,255)" fill-opacity="1.0" stroke-width="0.0" stroke-linecap="butt" stroke-linejoin="miter" font-size="1.0em" stroke-miterlimit="10.0"><path d="M -1050.0,-85.0 l -3.330669073875471e-14,-130.0 h -300.0000000000001 l -3.330669073875471e-14,130.0 h 300.0000000000002 Z" /></g></g><g transform="matrix(0.2932551319648094,0.0,0.0,0.2932551319648094,500.00000000000006,166.1290322580645)"><g stroke="rgb(0,0,0)" stroke-opacity="1.0" fill="rgb(0,0,0)" fill-opacity="0.0" stroke-width="3.0" stroke-linecap="butt" stroke-linejoin="miter" font-size="1.0em" stroke-miterlimit="10.0"><path d="M -1050.0,-85.0 l -3.3306690738754696e-14,-130.0 h -300.0 l -3.3306690738754696e-14,130.0 h 300.0000000000001 Z" /></g></g><g transform="matrix(0.2932551319648094,0.0,0.0,0.2932551319648094,500.00000000000006,166.1290322580645)"><g stroke="rgb(0,0,0)" stroke-opacity="1.0" fill="rgb(0,0,0)" fill-opacity="1.0" stroke-width="3.0" stroke-linecap="butt" stroke-linejoin="miter" font-size="1.0em" stroke-miterlimit="10.0"><text transform="matrix(100.0,0.0,0.0,100.0,-1200.0,-150.0)" dominant-baseline="middle" text-anchor="middle" stroke="none">7</text></g></g><g transform="matrix(0.2932551319648094,0.0,0.0,0.2932551319648094,500.00000000000006,166.1290322580645)"><g stroke="rgb(0,0,0)" stroke-opacity="1.0" fill="rgb(255,255,255)" fill-opacity="1.0" stroke-width="0.0" stroke-linecap="butt" stroke-linejoin="miter" font-size="1.0em" stroke-miterlimit="10.0"><path d="M -649.9999999999999,215.0 l -3.330669073875471e-14,-130.0 h -300.0000000000001 l -3.330669073875471e-14,130.0 h 300.0000000000002 Z" /></g></g><g transform="matrix(0.2932551319648094,0.0,0.0,0.2932551319648094,500.00000000000006,166.1290322580645)"><g stroke="rgb(0,0,0)" stroke-opacity="1.0" fill="rgb(0,0,0)" fill-opacity="0.0" stroke-width="3.0" stroke-linecap="butt" stroke-linejoin="miter" font-size="1.0em" stroke-miterlimit="10.0"><path d="M -650.0,215.0 l -3.3306690738754696e-14,-130.0 h -300.0 l -3.3306690738754696e-14,130.0 h 300.0000000000001 Z" /></g></g><g transform="matrix(0.2932551319648094,0.0,0.0,0.2932551319648094,500.00000000000006,166.1290322580645)"><g stroke="rgb(0,0,0)" stroke-opacity="1.0" fill="rgb(0,0,0)" fill-opacity="1.0" stroke-width="3.0" stroke-linecap="butt" stroke-linejoin="miter" font-size="1.0em" stroke-miterlimit="10.0"><text transform="matrix(100.0,0.0,0.0,100.0,-800.0,150.0)" dominant-baseline="middle" text-anchor="middle" stroke="none">14</text></g></g><g transform="matrix(0.2932551319648094,0.0,0.0,0.2932551319648094,500.00000000000006,166.1290322580645)"><g stroke="rgb(0,0,0)" stroke-opacity="1.0" fill="rgb(255,255,255)" fill-opacity="1.0" stroke-width="0.0" stroke-linecap="butt" stroke-linejoin="miter" font-size="1.0em" stroke-miterlimit="10.0"><path d="M 150.00000000000003,515.0 l -3.330669073875471e-14,-130.0 h -300.0000000000001 l -3.330669073875471e-14,130.0 h 300.0000000000002 Z" /></g></g><g transform="matrix(0.2932551319648094,0.0,0.0,0.2932551319648094,500.00000000000006,166.1290322580645)"><g stroke="rgb(0,0,0)" stroke-opacity="1.0" fill="rgb(0,0,0)" fill-opacity="0.0" stroke-width="3.0" stroke-linecap="butt" stroke-linejoin="miter" font-size="1.0em" stroke-miterlimit="10.0"><path d="M 150.00000000000006,515.0 l -3.3306690738754696e-14,-130.0 h -300.0 l -3.3306690738754696e-14,130.0 h 300.0000000000001 Z" /></g></g><g transform="matrix(0.2932551319648094,0.0,0.0,0.2932551319648094,500.00000000000006,166.1290322580645)"><g stroke="rgb(0,0,0)" stroke-opacity="1.0" fill="rgb(0,0,0)" fill-opacity="1.0" stroke-width="3.0" stroke-linecap="butt" stroke-linejoin="miter" font-size="1.0em" stroke-miterlimit="10.0"><text transform="matrix(100.0,0.0,0.0,100.0,0.0,450.0)" dominant-baseline="middle" text-anchor="middle" stroke="none">40</text></g></g></g></svg>